<svg xmlns="http://www.w3.org/2000/svg" width="100" height="100" viewBox="0 0 100 100">
    <defs>
        <linearGradient id="fireGradient" x1="0%" y1="0%" x2="0%" y2="100%">
            <stop offset="0%" style="stop-color:#ff6b00;stop-opacity:1" />
            <stop offset="50%" style="stop-color:#ff3d00;stop-opacity:1" />
            <stop offset="100%" style="stop-color:#dd2c00;stop-opacity:1" />
        </linearGradient>
    </defs>
    <path d="M50 10 C40 20, 35 30, 35 40 C35 35, 32 32, 30 35 C28 38, 30 45, 35 50 C30 55, 25 60, 25 70 C25 85, 37 95, 50 95 C63 95, 75 85, 75 70 C75 60, 70 55, 65 50 C70 45, 72 38, 70 35 C68 32, 65 35, 65 40 C65 30, 60 20, 50 10 Z"
        fill="url(#fireGradient)" stroke="#dd2c00" stroke-width="2" />
    <ellipse cx="50" cy="70" rx="15" ry="10" fill="#ffd700" opacity="0.8" />
</svg>
